<svg id="svg" version="1.1" width="400" height="200" viewBox="0 0 400 200" xmlns="http://www.w3.org/2000/svg" xmlns:xlink="http://www.w3.org/1999/xlink" ><g id="svgg"><path id="path0" d="M40.200 85.100 L 40.200 150.000 100.000 150.000 L 159.800 150.000 159.800 147.600 L 159.800 145.200 102.400 145.200 L 45.000 145.200 45.000 85.100 L 45.000 25.000 200.050 25.050 L 355.100 25.100 355.100 85.100 L 355.100 145.100 297.650 145.150 L 240.200 145.201 240.200 147.600 L 240.200 150.000 300.000 150.000 L 359.800 150.000 359.800 85.100 L 359.800 20.200 200.000 20.200 L 40.200 20.200 40.200 85.100 M113.400 66.500 L 113.400 68.400 116.000 68.400 L 118.600 68.400 118.600 66.500 L 118.600 64.600 116.000 64.600 L 113.400 64.600 113.400 66.500 M281.108 67.250 C 281.064 67.388,280.745 68.445,280.398 69.600 C 279.404 72.910,279.692 72.600,277.604 72.600 L 275.800 72.600 275.800 74.300 L 275.800 76.000 277.500 76.000 L 279.200 76.000 279.200 82.492 C 279.200 88.628,279.223 89.049,279.627 90.142 C 280.811 93.350,284.355 94.471,290.600 93.614 C 293.181 93.260,293.000 93.413,293.000 91.582 L 293.000 89.991 291.350 90.145 C 287.147 90.539,285.471 90.232,284.760 88.936 C 284.498 88.459,284.249 77.427,284.480 76.508 L 284.608 76.000 288.304 76.000 L 292.000 76.000 292.000 74.300 L 292.000 72.600 288.440 72.600 C 284.095 72.600,284.400 72.830,284.400 69.560 L 284.400 67.000 282.794 67.000 C 281.684 67.000,281.163 67.077,281.108 67.250 M81.788 67.950 C 81.772 68.938,81.772 92.110,81.788 92.950 L 81.800 93.600 88.134 93.600 C 96.318 93.600,97.597 93.372,99.906 91.499 C 103.246 88.790,102.593 82.461,98.806 80.851 C 98.418 80.686,97.941 80.470,97.746 80.371 C 97.551 80.272,96.985 80.135,96.488 80.067 C 95.487 79.930,95.399 79.585,96.315 79.379 C 101.292 78.261,102.060 70.734,97.434 68.411 C 95.513 67.446,93.553 67.209,87.450 67.204 L 81.800 67.200 81.788 67.950 M93.096 71.671 C 95.643 72.438,95.457 76.798,92.839 77.690 C 91.711 78.074,87.805 78.125,87.440 77.760 C 87.182 77.502,87.084 71.783,87.333 71.533 C 87.561 71.306,92.256 71.417,93.096 71.671 M136.900 72.326 C 130.828 73.904,127.808 79.953,129.675 86.800 C 131.409 93.162,138.415 95.993,144.700 92.870 C 150.721 89.878,151.448 77.802,145.846 73.831 C 144.082 72.580,139.128 71.747,136.900 72.326 M190.700 72.377 C 188.888 72.853,187.452 74.073,186.592 75.867 C 185.946 77.213,185.752 77.092,185.516 75.200 C 185.441 74.595,185.280 73.763,185.158 73.350 L 184.937 72.600 182.365 72.600 C 179.799 72.600,179.793 72.601,179.899 73.050 C 180.683 76.360,180.787 77.837,180.793 85.850 L 180.800 93.600 183.500 93.600 L 186.200 93.600 186.200 88.410 C 186.200 80.987,186.824 79.056,189.772 77.352 L 190.900 76.700 193.950 76.718 L 197.000 76.737 197.000 74.680 C 197.000 73.252,196.924 72.576,196.750 72.467 C 196.410 72.255,191.447 72.180,190.700 72.377 M209.700 72.388 C 204.646 73.823,202.447 76.695,202.246 82.123 C 201.966 89.733,205.073 93.615,211.704 93.939 C 215.897 94.144,219.158 92.700,221.025 89.811 C 221.872 88.501,221.845 88.472,219.650 88.315 C 218.578 88.238,217.520 88.133,217.300 88.081 C 217.015 88.015,216.785 88.164,216.500 88.603 C 213.967 92.497,208.228 90.419,207.854 85.472 L 207.742 84.000 214.871 84.000 L 222.000 84.000 222.000 82.888 C 222.000 78.117,219.828 74.342,216.200 72.810 C 215.002 72.304,210.929 72.040,209.700 72.388 M232.500 72.514 C 231.574 72.995,230.904 73.724,230.399 74.801 C 229.798 76.086,229.600 75.909,229.600 74.088 L 229.600 72.600 227.579 72.600 C 225.818 72.600,225.573 72.641,225.679 72.916 C 225.745 73.090,225.800 77.815,225.800 83.416 L 225.800 93.600 228.000 93.600 L 230.200 93.600 230.200 86.510 C 230.200 77.012,230.792 74.603,232.890 75.559 C 234.063 76.094,234.094 76.331,234.162 85.350 L 234.224 93.600 236.312 93.600 L 238.400 93.600 238.400 86.950 C 238.400 78.426,238.722 76.462,240.260 75.602 C 240.742 75.332,240.859 75.333,241.350 75.607 C 242.416 76.202,242.482 76.746,242.556 85.550 L 242.625 93.600 244.727 93.600 L 246.829 93.600 246.759 84.650 L 246.689 75.700 246.140 74.500 C 244.657 71.262,240.472 71.345,238.711 74.647 C 237.966 76.045,237.916 76.051,237.504 74.811 C 236.737 72.502,234.501 71.475,232.500 72.514 M257.900 72.327 C 252.699 73.659,250.523 76.836,250.524 83.100 C 250.524 90.369,253.888 94.000,260.621 94.000 C 267.089 94.000,270.659 90.090,270.662 83.000 C 270.665 77.482,268.870 74.306,264.900 72.805 C 263.716 72.357,259.031 72.037,257.900 72.327 M306.800 72.340 C 299.977 73.508,296.607 82.707,300.476 89.600 C 303.650 95.256,314.005 95.563,317.705 90.112 C 318.814 88.477,318.812 88.473,316.735 88.322 C 315.726 88.249,314.630 88.144,314.300 88.090 C 313.770 88.003,313.642 88.086,313.208 88.798 C 310.920 92.553,305.063 90.212,304.658 85.380 L 304.542 84.000 311.800 84.000 L 319.057 84.000 318.944 82.450 C 318.404 75.031,313.743 71.151,306.800 72.340 M107.600 74.295 L 107.600 75.989 110.450 76.045 L 113.300 76.100 113.300 83.100 L 113.300 90.100 109.450 90.154 L 105.600 90.209 105.600 91.904 L 105.600 93.600 115.600 93.600 L 125.600 93.600 125.600 91.900 L 125.600 90.200 122.221 90.200 C 119.325 90.200,118.825 90.155,118.721 89.884 C 118.655 89.710,118.600 85.750,118.600 81.084 L 118.600 72.600 113.100 72.600 L 107.600 72.600 107.600 74.295 M213.926 75.719 C 215.452 76.347,216.621 77.971,216.904 79.856 L 217.045 80.800 212.423 80.800 L 207.800 80.800 207.800 80.189 C 207.800 76.847,210.997 74.514,213.926 75.719 M311.189 75.894 C 312.588 76.604,313.475 77.964,313.715 79.769 L 313.852 80.800 309.226 80.800 L 304.600 80.800 304.600 80.207 C 304.600 76.745,308.208 74.384,311.189 75.894 M141.884 76.271 C 144.683 78.105,144.822 87.184,142.087 89.585 C 140.944 90.588,138.224 90.720,137.089 89.827 C 133.852 87.281,134.067 77.961,137.402 76.236 C 138.497 75.669,140.996 75.689,141.884 76.271 M262.188 75.997 C 265.775 77.025,266.374 87.274,262.993 89.774 C 260.294 91.769,256.742 89.776,256.190 85.958 C 255.140 78.698,257.565 74.671,262.188 75.997 M158.133 81.133 C 158.060 81.207,158.000 82.242,158.000 83.433 L 158.000 85.600 163.600 85.600 L 169.200 85.600 169.200 83.300 L 169.200 81.000 163.733 81.000 C 160.727 81.000,158.207 81.060,158.133 81.133 M94.349 82.308 C 95.897 82.954,96.430 83.853,96.423 85.808 C 96.414 88.861,95.450 89.484,90.725 89.493 L 87.300 89.500 87.245 86.007 C 87.215 84.086,87.235 82.398,87.289 82.257 C 87.443 81.856,93.370 81.899,94.349 82.308 M184.800 123.831 C 176.026 125.056,170.113 135.181,173.446 143.274 C 174.700 146.319,174.544 146.131,182.400 154.077 C 197.812 169.666,199.576 171.400,200.016 171.400 C 200.315 171.400,201.802 170.049,204.775 167.076 C 209.002 162.850,209.082 162.755,208.300 162.884 C 207.860 162.956,207.036 163.069,206.469 163.134 C 205.457 163.250,205.385 163.305,202.789 165.926 C 201.332 167.397,200.084 168.600,200.015 168.600 C 199.734 168.600,177.421 146.034,176.864 145.186 C 171.628 137.227,176.594 126.738,186.000 125.889 C 188.347 125.677,191.811 126.384,193.000 127.316 C 193.165 127.446,193.570 127.694,193.900 127.868 C 194.230 128.041,194.986 128.641,195.581 129.201 L 196.662 130.218 197.331 129.570 C 198.174 128.753,198.168 128.617,197.250 127.780 C 193.610 124.459,189.543 123.169,184.800 123.831 M210.700 123.821 C 206.742 124.390,205.164 125.426,199.033 131.485 C 192.897 137.549,191.660 139.285,190.923 142.871 C 188.177 156.234,203.199 165.747,214.000 157.485 C 217.070 155.137,224.869 146.784,225.845 144.799 C 231.114 134.080,222.485 122.128,210.700 123.821 M215.100 126.000 C 223.108 127.318,227.628 136.253,224.027 143.645 C 223.085 145.578,215.219 153.956,212.400 156.028 C 209.707 158.007,204.096 159.104,201.980 158.064 C 201.716 157.934,201.146 157.719,200.714 157.587 C 199.675 157.268,197.605 156.045,197.459 155.665 C 197.382 155.464,198.101 154.604,199.619 153.081 L 201.895 150.799 203.111 150.923 C 204.662 151.082,205.215 150.809,207.170 148.920 C 210.440 145.760,210.165 142.595,206.542 141.692 C 204.130 141.090,199.951 145.350,200.272 148.083 L 200.393 149.113 197.985 151.506 L 195.576 153.900 195.076 153.300 C 192.009 149.618,191.992 142.994,195.040 138.850 C 196.315 137.117,205.079 128.503,206.355 127.728 C 209.116 126.052,211.978 125.487,215.100 126.000 M206.873 144.215 C 207.706 144.870,207.540 145.305,205.765 147.124 C 203.926 149.008,203.356 149.216,202.615 148.273 C 201.980 147.466,202.075 147.250,203.863 145.463 C 205.641 143.685,206.007 143.533,206.873 144.215 " stroke="none" fill="#ebebeb" fill-rule="evenodd"></path><path id="path1" d="M114.650 64.548 C 115.392 64.587,116.608 64.587,117.350 64.548 C 118.093 64.510,117.485 64.478,116.000 64.478 C 114.515 64.478,113.908 64.510,114.650 64.548 M87.530 71.550 C 87.479 71.633,88.081 71.675,88.868 71.645 C 91.441 71.547,91.738 71.468,89.662 71.434 C 88.541 71.415,87.582 71.468,87.530 71.550 M193.950 72.141 C 194.197 72.189,194.603 72.189,194.850 72.141 C 195.097 72.093,194.895 72.054,194.400 72.054 C 193.905 72.054,193.703 72.093,193.950 72.141 M107.471 74.300 C 107.470 75.290,107.504 75.720,107.546 75.256 C 107.588 74.792,107.589 73.982,107.547 73.456 C 107.506 72.930,107.472 73.310,107.471 74.300 M100.650 73.700 C 100.653 74.140,100.694 74.296,100.741 74.048 C 100.789 73.799,100.787 73.439,100.737 73.248 C 100.687 73.056,100.648 73.260,100.650 73.700 M225.693 83.900 C 225.693 89.400,225.718 91.621,225.750 88.836 C 225.781 86.051,225.781 81.551,225.750 78.836 C 225.718 76.121,225.693 78.400,225.693 83.900 M279.083 80.100 C 279.084 82.190,279.113 83.018,279.149 81.940 C 279.185 80.861,279.185 79.151,279.149 78.140 C 279.113 77.128,279.083 78.010,279.083 80.100 M192.550 76.741 C 192.798 76.789,193.203 76.789,193.450 76.741 C 193.697 76.693,193.495 76.654,193.000 76.654 C 192.505 76.654,192.303 76.693,192.550 76.741 M96.049 79.533 C 95.772 79.644,95.905 80.000,96.224 80.000 C 96.334 80.000,96.373 79.918,96.311 79.817 C 96.248 79.716,96.311 79.589,96.449 79.533 C 96.587 79.477,96.610 79.432,96.500 79.432 C 96.390 79.432,96.187 79.477,96.049 79.533 M180.690 86.600 C 180.690 90.615,180.717 92.258,180.750 90.250 C 180.782 88.243,180.782 84.958,180.750 82.950 C 180.717 80.943,180.690 82.585,180.690 86.600 M210.039 80.749 C 211.215 80.784,213.195 80.785,214.439 80.749 C 215.683 80.714,214.720 80.685,212.300 80.685 C 209.880 80.685,208.863 80.714,210.039 80.749 M306.839 80.749 C 308.015 80.784,309.995 80.785,311.239 80.749 C 312.483 80.714,311.520 80.685,309.100 80.685 C 306.680 80.685,305.663 80.714,306.839 80.749 M157.887 81.063 C 157.831 81.207,157.811 82.310,157.843 83.513 L 157.900 85.700 163.500 85.705 L 169.100 85.709 163.550 85.652 L 158.000 85.594 158.000 83.300 L 158.000 81.006 163.650 80.950 L 169.300 80.894 163.644 80.847 C 159.122 80.809,157.967 80.853,157.887 81.063 M143.850 81.900 C 143.853 82.340,143.894 82.496,143.941 82.248 C 143.989 81.999,143.987 81.639,143.937 81.448 C 143.887 81.256,143.848 81.460,143.850 81.900 M256.050 82.100 C 256.053 82.540,256.094 82.696,256.141 82.448 C 256.189 82.199,256.187 81.839,256.137 81.648 C 256.087 81.456,256.048 81.660,256.050 82.100 M87.530 82.150 C 87.479 82.233,88.306 82.276,89.368 82.247 C 92.932 82.149,93.321 82.074,90.462 82.037 C 88.901 82.017,87.582 82.067,87.530 82.150 M319.046 83.400 C 319.046 83.785,319.088 83.942,319.138 83.750 C 319.188 83.558,319.188 83.243,319.138 83.050 C 319.088 82.858,319.046 83.015,319.046 83.400 M256.050 84.100 C 256.053 84.540,256.094 84.696,256.141 84.448 C 256.189 84.199,256.187 83.839,256.137 83.648 C 256.087 83.456,256.048 83.660,256.050 84.100 M102.254 86.200 C 102.254 86.695,102.293 86.898,102.341 86.650 C 102.389 86.403,102.389 85.998,102.341 85.750 C 102.293 85.502,102.254 85.705,102.254 86.200 M316.687 91.450 L 316.100 92.100 316.750 91.513 C 317.108 91.190,317.400 90.897,317.400 90.863 C 317.400 90.708,317.235 90.844,316.687 91.450 M212.552 125.941 C 212.801 125.989,213.161 125.987,213.352 125.937 C 213.544 125.887,213.340 125.848,212.900 125.850 C 212.460 125.853,212.304 125.894,212.552 125.941 M199.998 133.750 L 195.500 138.300 200.050 133.802 C 204.278 129.622,204.690 129.200,204.548 129.200 C 204.520 129.200,202.472 131.248,199.998 133.750 M205.650 141.538 C 205.843 141.588,206.157 141.588,206.350 141.538 C 206.543 141.488,206.385 141.446,206.000 141.446 C 205.615 141.446,205.457 141.488,205.650 141.538 M202.200 143.700 C 201.381 144.525,200.755 145.200,200.810 145.200 C 200.865 145.200,201.581 144.525,202.400 143.700 C 203.219 142.875,203.845 142.200,203.790 142.200 C 203.735 142.200,203.019 142.875,202.200 143.700 M179.200 147.700 C 180.130 148.635,180.936 149.400,180.991 149.400 C 181.046 149.400,180.330 148.635,179.400 147.700 C 178.470 146.765,177.664 146.000,177.609 146.000 C 177.554 146.000,178.270 146.765,179.200 147.700 M207.291 148.850 L 206.500 149.700 207.350 148.909 C 208.140 148.174,208.292 148.000,208.141 148.000 C 208.108 148.000,207.725 148.383,207.291 148.850 M198.097 151.250 L 195.900 153.500 198.150 151.303 C 199.388 150.095,200.400 149.083,200.400 149.053 C 200.400 148.909,200.137 149.160,198.097 151.250 M203.250 151.138 C 203.442 151.188,203.758 151.188,203.950 151.138 C 204.143 151.088,203.985 151.046,203.600 151.046 C 203.215 151.046,203.058 151.088,203.250 151.138 M204.554 158.345 C 204.913 158.389,205.453 158.389,205.754 158.343 C 206.054 158.297,205.760 158.261,205.100 158.262 C 204.440 158.263,204.194 158.300,204.554 158.345 M204.354 160.745 C 204.713 160.789,205.253 160.789,205.554 160.743 C 205.854 160.697,205.560 160.661,204.900 160.662 C 204.240 160.663,203.994 160.700,204.354 160.745 M194.400 166.500 C 197.093 169.195,199.342 171.400,199.397 171.400 C 199.452 171.400,197.293 169.195,194.600 166.500 C 191.907 163.805,189.658 161.600,189.603 161.600 C 189.548 161.600,191.707 163.805,194.400 166.500 M204.802 167.100 L 200.505 171.500 204.894 167.158 C 207.308 164.770,209.242 162.790,209.191 162.758 C 209.141 162.726,207.166 164.680,204.802 167.100 M202.196 166.350 L 200.100 168.500 202.250 166.404 C 203.433 165.251,204.400 164.283,204.400 164.254 C 204.400 164.109,204.144 164.353,202.196 166.350 " stroke="none" fill="#848c8c" fill-rule="evenodd"></path><path id="path2" d="M40.093 20.250 C 40.040 20.387,40.021 49.660,40.049 85.300 L 40.101 150.100 40.150 85.150 L 40.200 20.200 200.000 20.200 L 359.799 20.200 359.850 85.150 L 359.901 150.100 359.900 85.100 L 359.900 20.100 200.044 20.050 C 72.263 20.010,40.168 20.050,40.093 20.250 M355.050 85.050 L 355.000 144.999 297.550 145.050 L 240.100 145.100 240.090 147.600 L 240.080 150.100 240.146 147.650 L 240.212 145.200 297.612 145.200 C 343.349 145.200,355.032 145.149,355.107 144.950 C 355.160 144.813,355.179 117.790,355.151 84.900 L 355.099 25.100 355.050 85.050 M113.289 66.550 L 113.300 68.500 116.000 68.500 L 118.700 68.500 118.711 66.550 L 118.723 64.599 118.654 66.500 L 118.586 68.400 116.000 68.400 L 113.414 68.400 113.346 66.500 L 113.277 64.599 113.289 66.550 M282.894 66.945 L 284.389 67.017 284.453 69.558 L 284.517 72.100 284.509 69.500 L 284.500 66.900 282.949 66.886 L 281.399 66.873 282.894 66.945 M81.654 68.000 C 81.654 68.495,81.693 68.698,81.741 68.450 C 81.789 68.203,81.789 67.797,81.741 67.550 C 81.693 67.302,81.654 67.505,81.654 68.000 M94.417 67.473 C 94.463 67.514,94.860 67.602,95.300 67.669 C 95.858 67.754,95.979 67.736,95.700 67.609 C 95.316 67.435,94.245 67.322,94.417 67.473 M81.650 70.700 C 81.653 71.140,81.694 71.296,81.741 71.048 C 81.789 70.799,81.787 70.439,81.737 70.248 C 81.687 70.056,81.648 70.260,81.650 70.700 M87.333 71.533 C 87.084 71.783,87.182 77.502,87.440 77.760 C 87.604 77.924,88.412 77.987,89.990 77.960 L 92.300 77.920 89.900 77.810 L 87.500 77.700 87.500 74.550 C 87.500 72.817,87.493 71.400,87.483 71.400 C 87.474 71.400,87.407 71.460,87.333 71.533 M279.507 71.978 C 279.391 72.342,279.183 72.392,277.539 72.451 L 275.700 72.517 277.543 72.558 C 279.307 72.598,280.273 72.206,279.734 71.668 C 279.681 71.614,279.578 71.753,279.507 71.978 M139.250 72.138 C 139.442 72.188,139.758 72.188,139.950 72.138 C 140.143 72.088,139.985 72.046,139.600 72.046 C 139.215 72.046,139.058 72.088,139.250 72.138 M260.250 72.138 C 260.443 72.188,260.757 72.188,260.950 72.138 C 261.143 72.088,260.985 72.046,260.600 72.046 C 260.215 72.046,260.058 72.088,260.250 72.138 M100.450 72.900 C 100.453 73.340,100.494 73.496,100.541 73.248 C 100.589 72.999,100.587 72.639,100.537 72.448 C 100.487 72.256,100.448 72.460,100.450 72.900 M113.048 72.550 L 118.596 72.606 118.650 81.253 L 118.704 89.900 118.752 81.150 L 118.800 72.400 113.150 72.447 L 107.500 72.493 113.048 72.550 M181.050 72.548 C 181.793 72.587,183.008 72.587,183.750 72.548 C 184.493 72.510,183.885 72.478,182.400 72.478 C 180.915 72.478,180.308 72.510,181.050 72.548 M196.962 74.594 C 197.023 76.727,197.016 76.771,196.562 76.867 C 196.133 76.958,196.136 76.963,196.600 76.933 C 197.112 76.899,197.517 73.039,197.057 72.577 C 196.971 72.490,196.928 73.397,196.962 74.594 M208.300 72.707 C 207.800 72.948,207.783 72.976,208.200 72.874 C 208.767 72.735,209.404 72.411,209.100 72.415 C 208.990 72.417,208.630 72.548,208.300 72.707 M226.550 72.547 C 227.128 72.588,228.072 72.588,228.650 72.547 C 229.228 72.507,228.755 72.474,227.600 72.474 C 226.445 72.474,225.972 72.507,226.550 72.547 M231.538 73.050 C 230.915 73.667,230.913 73.675,231.491 73.202 C 231.826 72.927,232.186 72.635,232.290 72.552 C 232.395 72.468,232.416 72.400,232.337 72.400 C 232.258 72.400,231.899 72.692,231.538 73.050 M288.350 72.550 L 292.000 72.609 292.000 74.300 L 292.000 75.991 288.250 76.053 L 284.500 76.114 288.300 76.107 L 292.100 76.100 292.158 74.250 L 292.215 72.400 288.458 72.445 L 284.700 72.490 288.350 72.550 M81.650 73.300 C 81.653 73.740,81.694 73.896,81.741 73.648 C 81.789 73.399,81.787 73.039,81.737 72.848 C 81.687 72.656,81.648 72.860,81.650 73.300 M229.638 74.338 C 229.601 75.531,229.830 76.131,230.077 75.488 C 230.142 75.318,230.111 75.231,230.008 75.295 C 229.902 75.360,229.789 74.907,229.748 74.256 L 229.676 73.100 229.638 74.338 M100.450 74.700 C 100.453 75.140,100.494 75.296,100.541 75.048 C 100.589 74.799,100.587 74.439,100.537 74.248 C 100.487 74.056,100.448 74.260,100.450 74.700 M81.650 75.900 C 81.653 76.340,81.694 76.496,81.741 76.248 C 81.789 75.999,81.787 75.639,81.737 75.448 C 81.687 75.256,81.648 75.460,81.650 75.900 M211.754 75.545 C 212.113 75.589,212.653 75.589,212.954 75.543 C 213.254 75.497,212.960 75.461,212.300 75.462 C 211.640 75.463,211.394 75.500,211.754 75.545 M231.663 75.750 C 231.453 75.942,231.392 76.026,231.528 75.936 C 231.663 75.846,232.028 75.696,232.337 75.603 C 232.794 75.466,232.819 75.431,232.472 75.417 C 232.237 75.408,231.873 75.558,231.663 75.750 M240.863 75.603 C 241.172 75.696,241.537 75.846,241.672 75.936 C 241.808 76.026,241.747 75.942,241.537 75.750 C 241.327 75.558,240.963 75.408,240.728 75.417 C 240.381 75.431,240.406 75.466,240.863 75.603 M308.300 75.501 C 308.758 75.659,310.797 75.722,310.559 75.570 C 310.416 75.480,309.805 75.412,309.200 75.419 C 308.595 75.426,308.190 75.463,308.300 75.501 M180.446 76.400 C 180.446 76.785,180.488 76.942,180.538 76.750 C 180.588 76.558,180.588 76.242,180.538 76.050 C 180.488 75.858,180.446 76.015,180.446 76.400 M110.350 76.147 L 113.200 76.211 113.200 83.101 L 113.200 89.991 109.350 90.046 L 105.500 90.100 105.500 91.900 L 105.500 93.700 115.600 93.700 L 125.700 93.700 125.700 91.900 L 125.700 90.100 122.250 90.093 L 118.800 90.085 122.200 90.147 L 125.600 90.209 125.600 91.905 L 125.600 93.600 115.600 93.600 L 105.600 93.600 105.600 91.904 L 105.600 90.209 109.450 90.154 L 113.300 90.100 113.300 83.100 L 113.300 76.100 110.400 76.091 L 107.500 76.082 110.350 76.147 M141.500 76.233 C 141.720 76.355,142.084 76.600,142.310 76.777 C 142.535 76.955,142.466 76.853,142.156 76.550 C 141.847 76.248,141.483 76.003,141.347 76.006 C 141.211 76.009,141.280 76.112,141.500 76.233 M276.200 76.124 C 277.361 76.273,279.201 76.289,279.200 76.150 C 279.200 76.067,278.413 76.013,277.450 76.030 C 276.488 76.046,275.925 76.089,276.200 76.124 M233.722 76.900 C 233.887 77.635,234.001 77.795,233.997 77.283 C 233.995 77.073,233.903 76.765,233.791 76.600 C 233.643 76.381,233.624 76.462,233.722 76.900 M284.487 81.600 C 284.487 84.515,284.515 85.708,284.549 84.250 C 284.584 82.793,284.584 80.408,284.549 78.950 C 284.515 77.493,284.487 78.685,284.487 81.600 M194.152 76.741 C 194.401 76.789,194.761 76.787,194.952 76.737 C 195.144 76.687,194.940 76.648,194.500 76.650 C 194.060 76.653,193.904 76.694,194.152 76.741 M81.650 77.500 C 81.653 77.940,81.694 78.096,81.741 77.848 C 81.789 77.599,81.787 77.239,81.737 77.048 C 81.687 76.856,81.648 77.060,81.650 77.500 M263.928 77.500 C 264.390 78.290,264.400 78.301,264.400 78.055 C 264.400 77.939,264.215 77.632,263.988 77.372 L 263.576 76.900 263.928 77.500 M180.657 78.500 C 180.659 79.050,180.698 79.251,180.744 78.947 C 180.789 78.643,180.788 78.193,180.741 77.947 C 180.693 77.701,180.656 77.950,180.657 78.500 M143.162 78.100 C 143.263 78.320,143.396 78.635,143.457 78.800 C 143.553 79.059,143.571 79.058,143.584 78.788 C 143.593 78.617,143.460 78.302,143.289 78.088 C 142.983 77.706,142.981 77.706,143.162 78.100 M234.096 85.850 L 234.100 93.700 236.300 93.700 L 238.500 93.700 238.504 86.750 L 238.508 79.800 238.451 86.700 L 238.395 93.600 236.300 93.600 L 234.205 93.600 234.149 85.800 L 234.093 78.000 234.096 85.850 M246.848 85.850 L 246.800 93.600 244.702 93.600 L 242.605 93.600 242.549 86.000 L 242.493 78.400 242.496 86.050 L 242.500 93.700 244.654 93.757 C 246.267 93.799,246.832 93.749,246.906 93.556 C 246.960 93.415,246.980 89.879,246.950 85.699 L 246.895 78.100 246.848 85.850 M216.522 78.900 C 216.687 79.635,216.801 79.795,216.797 79.283 C 216.795 79.073,216.703 78.765,216.591 78.600 C 216.443 78.381,216.424 78.462,216.522 78.900 M318.434 79.300 C 318.431 79.520,318.505 79.880,318.600 80.100 C 318.819 80.610,318.819 80.084,318.600 79.400 C 318.471 78.998,318.439 78.978,318.434 79.300 M81.650 80.100 C 81.653 80.540,81.694 80.696,81.741 80.448 C 81.789 80.199,81.787 79.839,81.737 79.648 C 81.687 79.456,81.648 79.660,81.650 80.100 M264.958 82.200 C 265.011 83.685,265.087 84.938,265.127 84.983 C 265.264 85.139,265.171 81.303,265.016 80.400 C 264.927 79.877,264.903 80.632,264.958 82.200 M216.751 80.300 C 216.698 80.575,216.733 80.800,216.828 80.800 C 216.922 80.800,217.000 80.575,217.000 80.300 C 217.000 80.025,216.965 79.800,216.923 79.800 C 216.881 79.800,216.804 80.025,216.751 80.300 M149.446 80.800 C 149.446 81.185,149.488 81.343,149.538 81.150 C 149.588 80.958,149.588 80.642,149.538 80.450 C 149.488 80.258,149.446 80.415,149.446 80.800 M202.076 83.000 C 202.076 84.265,202.108 84.783,202.148 84.150 C 202.187 83.517,202.187 82.483,202.148 81.850 C 202.108 81.218,202.076 81.735,202.076 83.000 M169.276 83.300 C 169.277 84.620,169.309 85.134,169.348 84.442 C 169.387 83.750,169.387 82.670,169.348 82.042 C 169.308 81.414,169.276 81.980,169.276 83.300 M134.873 83.100 C 134.874 84.200,134.907 84.624,134.948 84.043 C 134.988 83.462,134.988 82.562,134.947 82.043 C 134.906 81.524,134.873 82.000,134.873 83.100 M222.038 82.647 L 222.000 83.995 214.850 84.050 L 207.700 84.105 214.856 84.153 C 222.923 84.206,222.265 84.357,222.149 82.478 L 222.076 81.300 222.038 82.647 M250.270 83.000 C 250.270 83.935,250.304 84.317,250.346 83.850 C 250.389 83.383,250.389 82.618,250.346 82.150 C 250.304 81.683,250.270 82.065,250.270 83.000 M149.669 83.100 C 149.669 83.980,149.704 84.315,149.747 83.845 C 149.789 83.374,149.788 82.654,149.745 82.245 C 149.702 81.835,149.668 82.220,149.669 83.100 M81.650 82.700 C 81.653 83.140,81.694 83.296,81.741 83.048 C 81.789 82.799,81.787 82.439,81.737 82.248 C 81.687 82.056,81.648 82.260,81.650 82.700 M87.289 82.257 C 87.235 82.398,87.215 84.086,87.245 86.007 L 87.300 89.500 90.100 89.508 L 92.900 89.516 90.141 89.453 L 87.383 89.389 87.441 85.694 C 87.499 82.058,87.485 81.745,87.289 82.257 M298.860 83.000 C 298.860 83.605,298.897 83.853,298.943 83.550 C 298.989 83.248,298.989 82.752,298.943 82.450 C 298.897 82.148,298.860 82.395,298.860 83.000 M279.072 85.600 C 279.072 86.645,279.106 87.073,279.147 86.550 C 279.188 86.028,279.188 85.173,279.147 84.650 C 279.106 84.127,279.072 84.555,279.072 85.600 M304.600 84.150 C 304.600 84.287,310.294 84.283,316.600 84.143 C 317.975 84.112,315.838 84.067,311.850 84.043 C 307.863 84.020,304.600 84.067,304.600 84.150 M81.650 85.300 C 81.653 85.740,81.694 85.896,81.741 85.648 C 81.789 85.399,81.787 85.039,81.737 84.848 C 81.687 84.656,81.648 84.860,81.650 85.300 M102.067 86.200 C 102.067 87.025,102.103 87.363,102.146 86.950 C 102.189 86.538,102.189 85.863,102.146 85.450 C 102.103 85.038,102.067 85.375,102.067 86.200 M264.846 85.800 C 264.846 86.185,264.888 86.343,264.938 86.150 C 264.988 85.958,264.988 85.642,264.938 85.450 C 264.888 85.258,264.846 85.415,264.846 85.800 M270.314 86.514 C 270.241 86.807,270.219 87.086,270.266 87.133 C 270.313 87.180,270.412 86.979,270.486 86.686 C 270.559 86.393,270.581 86.114,270.534 86.067 C 270.487 86.020,270.388 86.221,270.314 86.514 M304.803 86.517 C 304.805 86.728,304.897 87.035,305.009 87.200 C 305.157 87.419,305.176 87.338,305.078 86.900 C 304.913 86.165,304.799 86.005,304.803 86.517 M81.650 87.900 C 81.653 88.340,81.694 88.496,81.741 88.248 C 81.789 87.999,81.787 87.639,81.737 87.448 C 81.687 87.256,81.648 87.460,81.650 87.900 M135.400 87.477 C 135.400 87.691,135.995 88.800,136.110 88.800 C 136.165 88.800,136.062 88.508,135.880 88.150 C 135.508 87.420,135.400 87.268,135.400 87.477 M95.599 88.250 C 95.305 88.652,95.257 88.792,95.473 88.616 C 95.801 88.350,96.297 87.600,96.145 87.600 C 96.106 87.600,95.861 87.892,95.599 88.250 M217.750 88.141 C 217.998 88.189,218.403 88.189,218.650 88.141 C 218.898 88.093,218.695 88.054,218.200 88.054 C 217.705 88.054,217.503 88.093,217.750 88.141 M314.750 88.141 C 314.998 88.189,315.403 88.189,315.650 88.141 C 315.898 88.093,315.695 88.054,315.200 88.054 C 314.705 88.054,314.503 88.093,314.750 88.141 M219.850 88.343 C 220.153 88.389,220.648 88.389,220.950 88.343 C 221.253 88.297,221.005 88.260,220.400 88.260 C 219.795 88.260,219.548 88.297,219.850 88.343 M316.850 88.343 C 317.153 88.389,317.648 88.389,317.950 88.343 C 318.253 88.297,318.005 88.260,317.400 88.260 C 316.795 88.260,316.548 88.297,316.850 88.343 M81.650 90.500 C 81.653 90.940,81.694 91.096,81.741 90.848 C 81.789 90.599,81.787 90.239,81.737 90.048 C 81.687 89.856,81.648 90.060,81.650 90.500 M287.750 90.345 C 288.108 90.389,288.693 90.389,289.050 90.345 C 289.407 90.300,289.115 90.264,288.400 90.264 C 287.685 90.264,287.393 90.300,287.750 90.345 M212.250 90.538 C 212.443 90.588,212.757 90.588,212.950 90.538 C 213.143 90.488,212.985 90.446,212.600 90.446 C 212.215 90.446,212.058 90.488,212.250 90.538 M219.789 91.350 L 219.100 92.100 219.850 91.411 C 220.263 91.032,220.600 90.694,220.600 90.661 C 220.600 90.508,220.431 90.652,219.789 91.350 M253.100 91.400 C 253.530 91.840,253.926 92.200,253.981 92.200 C 254.036 92.200,253.730 91.840,253.300 91.400 C 252.870 90.960,252.474 90.600,252.419 90.600 C 252.364 90.600,252.670 90.960,253.100 91.400 M301.700 91.400 C 302.130 91.840,302.526 92.200,302.581 92.200 C 302.636 92.200,302.330 91.840,301.900 91.400 C 301.470 90.960,301.074 90.600,301.019 90.600 C 300.964 90.600,301.270 90.960,301.700 91.400 M146.589 91.550 L 145.900 92.300 146.650 91.611 C 147.348 90.969,147.492 90.800,147.339 90.800 C 147.306 90.800,146.968 91.138,146.589 91.550 M81.650 93.050 L 81.700 93.700 88.100 93.704 L 94.500 93.708 88.162 93.651 L 81.825 93.594 81.712 92.997 C 81.602 92.413,81.601 92.414,81.650 93.050 M215.500 93.600 C 215.248 93.708,215.211 93.772,215.400 93.772 C 215.565 93.772,215.880 93.695,216.100 93.600 C 216.352 93.492,216.389 93.428,216.200 93.428 C 216.035 93.428,215.720 93.505,215.500 93.600 M182.041 93.748 C 182.779 93.786,184.039 93.787,184.841 93.749 C 185.644 93.711,185.040 93.679,183.500 93.679 C 181.960 93.679,181.304 93.710,182.041 93.748 M226.850 93.748 C 227.482 93.787,228.518 93.787,229.150 93.748 C 229.782 93.708,229.265 93.676,228.000 93.676 C 226.735 93.676,226.218 93.708,226.850 93.748 M290.152 93.741 C 290.401 93.789,290.761 93.787,290.952 93.737 C 291.144 93.687,290.940 93.648,290.500 93.650 C 290.060 93.653,289.904 93.694,290.152 93.741 M287.853 93.944 C 288.157 93.989,288.607 93.988,288.853 93.941 C 289.099 93.893,288.850 93.856,288.300 93.857 C 287.750 93.859,287.549 93.898,287.853 93.944 M138.853 94.144 C 139.157 94.189,139.607 94.188,139.853 94.141 C 140.099 94.093,139.850 94.056,139.300 94.057 C 138.750 94.059,138.549 94.098,138.853 94.144 M211.750 94.141 C 211.998 94.189,212.403 94.189,212.650 94.141 C 212.898 94.093,212.695 94.054,212.200 94.054 C 211.705 94.054,211.503 94.093,211.750 94.141 M260.053 94.144 C 260.357 94.189,260.807 94.188,261.053 94.141 C 261.299 94.093,261.050 94.056,260.500 94.057 C 259.950 94.059,259.749 94.098,260.053 94.144 M308.550 94.141 C 308.798 94.189,309.203 94.189,309.450 94.141 C 309.697 94.093,309.495 94.054,309.000 94.054 C 308.505 94.054,308.303 94.093,308.550 94.141 M185.050 123.738 C 185.243 123.788,185.558 123.788,185.750 123.738 C 185.942 123.688,185.785 123.646,185.400 123.646 C 185.015 123.646,184.858 123.688,185.050 123.738 M214.250 123.738 C 214.443 123.788,214.757 123.788,214.950 123.738 C 215.143 123.688,214.985 123.646,214.600 123.646 C 214.215 123.646,214.058 123.688,214.250 123.738 M187.450 125.938 C 187.643 125.988,187.958 125.988,188.150 125.938 C 188.343 125.888,188.185 125.846,187.800 125.846 C 187.415 125.846,187.258 125.888,187.450 125.938 M190.017 126.272 C 190.063 126.311,190.370 126.404,190.700 126.478 C 191.138 126.576,191.219 126.557,191.000 126.409 C 190.730 126.226,189.816 126.099,190.017 126.272 M176.691 127.850 L 175.900 128.700 176.750 127.909 C 177.540 127.174,177.692 127.000,177.541 127.000 C 177.508 127.000,177.125 127.383,176.691 127.850 M223.192 127.850 C 224.020 128.733,224.200 128.892,224.200 128.742 C 224.200 128.710,223.773 128.282,223.250 127.792 L 222.300 126.900 223.192 127.850 M197.515 128.019 C 197.837 128.414,198.140 128.704,198.190 128.662 C 198.239 128.621,197.976 128.298,197.604 127.944 L 196.929 127.300 197.515 128.019 M198.598 131.750 L 194.500 135.900 198.650 131.802 C 200.933 129.548,202.800 127.680,202.800 127.652 C 202.800 127.510,202.406 127.894,198.598 131.750 M193.800 127.855 C 193.800 127.894,194.093 128.139,194.450 128.401 C 194.852 128.695,194.992 128.743,194.816 128.527 C 194.550 128.199,193.800 127.703,193.800 127.855 M178.287 129.450 L 177.700 130.100 178.350 129.513 C 178.956 128.965,179.092 128.800,178.937 128.800 C 178.903 128.800,178.610 129.093,178.287 129.450 M221.000 128.863 C 221.000 128.897,221.293 129.190,221.650 129.513 L 222.300 130.100 221.713 129.450 C 221.165 128.844,221.000 128.708,221.000 128.863 M172.646 135.800 C 172.646 136.185,172.688 136.343,172.738 136.150 C 172.788 135.958,172.788 135.643,172.738 135.450 C 172.688 135.258,172.646 135.415,172.646 135.800 M172.450 137.300 C 172.453 137.740,172.494 137.896,172.541 137.648 C 172.589 137.399,172.587 137.039,172.537 136.848 C 172.487 136.656,172.448 136.860,172.450 137.300 M225.236 138.000 C 225.213 138.715,225.148 139.525,225.092 139.800 L 224.989 140.300 225.203 139.810 C 225.320 139.541,225.385 138.731,225.347 138.010 L 225.278 136.700 225.236 138.000 M174.650 138.100 C 174.653 138.540,174.694 138.696,174.741 138.448 C 174.789 138.199,174.787 137.839,174.737 137.648 C 174.687 137.456,174.648 137.660,174.650 138.100 M172.450 139.100 C 172.453 139.540,172.494 139.696,172.541 139.448 C 172.589 139.199,172.587 138.839,172.537 138.648 C 172.487 138.456,172.448 138.660,172.450 139.100 M227.227 140.400 C 227.209 140.675,227.148 141.125,227.092 141.400 L 226.989 141.900 227.204 141.408 C 227.322 141.137,227.383 140.687,227.339 140.408 L 227.260 139.900 227.227 140.400 M173.434 143.610 C 173.551 143.946,173.683 144.183,173.729 144.138 C 173.828 144.039,173.450 143.000,173.315 143.000 C 173.263 143.000,173.317 143.275,173.434 143.610 M204.491 144.850 L 203.700 145.700 204.550 144.909 C 205.340 144.174,205.492 144.000,205.341 144.000 C 205.308 144.000,204.925 144.383,204.491 144.850 M209.450 145.100 C 209.453 145.540,209.494 145.696,209.541 145.448 C 209.589 145.199,209.587 144.839,209.537 144.648 C 209.487 144.456,209.448 144.660,209.450 145.100 M190.467 146.000 C 190.467 146.825,190.503 147.162,190.546 146.750 C 190.589 146.338,190.589 145.662,190.546 145.250 C 190.503 144.838,190.467 145.175,190.467 146.000 M102.394 145.150 L 159.788 145.201 159.853 147.550 L 159.918 149.900 159.909 147.500 L 159.900 145.100 102.450 145.099 L 45.000 145.099 102.394 145.150 M192.660 146.000 C 192.660 146.605,192.697 146.853,192.743 146.550 C 192.789 146.248,192.789 145.753,192.743 145.450 C 192.697 145.148,192.660 145.395,192.660 146.000 M186.700 155.400 C 191.539 160.240,195.543 164.200,195.598 164.200 C 195.653 164.200,191.739 160.240,186.900 155.400 C 182.061 150.560,178.057 146.600,178.002 146.600 C 177.947 146.600,181.861 150.560,186.700 155.400 M217.700 150.800 C 215.392 153.110,213.549 155.000,213.604 155.000 C 213.659 155.000,215.592 153.110,217.900 150.800 C 220.208 148.490,222.051 146.600,221.996 146.600 C 221.941 146.600,220.008 148.490,217.700 150.800 M200.014 147.517 C 200.022 147.947,200.105 148.480,200.198 148.700 C 200.304 148.949,200.326 148.685,200.256 148.000 C 200.122 146.683,199.995 146.428,200.014 147.517 M219.398 152.350 L 214.900 156.900 219.450 152.402 C 221.953 149.928,224.000 147.880,224.000 147.852 C 224.000 147.710,223.578 148.122,219.398 152.350 M182.800 154.700 C 186.264 158.165,189.143 161.000,189.198 161.000 C 189.253 161.000,186.464 158.165,183.000 154.700 C 179.536 151.235,176.657 148.400,176.602 148.400 C 176.547 148.400,179.336 151.235,182.800 154.700 M191.414 151.300 C 191.414 151.410,191.543 151.725,191.700 152.000 C 191.857 152.275,191.986 152.410,191.986 152.300 C 191.986 152.190,191.857 151.875,191.700 151.600 C 191.543 151.325,191.414 151.190,191.414 151.300 M194.500 156.200 C 194.930 156.640,195.326 157.000,195.381 157.000 C 195.436 157.000,195.130 156.640,194.700 156.200 C 194.270 155.760,193.874 155.400,193.819 155.400 C 193.764 155.400,194.070 155.760,194.500 156.200 M207.800 158.000 C 207.388 158.132,207.370 158.163,207.700 158.177 C 207.920 158.186,208.235 158.107,208.400 158.000 C 208.750 157.774,208.507 157.774,207.800 158.000 M197.800 158.690 C 197.800 158.745,198.070 158.929,198.400 159.100 C 198.730 159.271,199.000 159.365,199.000 159.310 C 199.000 159.255,198.730 159.071,198.400 158.900 C 198.070 158.729,197.800 158.635,197.800 158.690 M209.000 160.000 C 208.588 160.132,208.570 160.163,208.900 160.177 C 209.120 160.186,209.435 160.107,209.600 160.000 C 209.950 159.774,209.707 159.774,209.000 160.000 M205.952 163.141 C 206.201 163.189,206.561 163.187,206.752 163.137 C 206.944 163.087,206.740 163.048,206.300 163.050 C 205.860 163.053,205.704 163.094,205.952 163.141 " stroke="none" fill="#acacac" fill-rule="evenodd"></path><path id="path3" d="M0.000 100.000 L 0.000 200.000 200.000 200.000 L 400.000 200.000 400.000 100.000 L 400.000 0.000 200.000 0.000 L 0.000 0.000 0.000 100.000 M360.150 85.050 L 360.201 150.000 299.994 150.000 L 239.788 150.000 239.844 147.550 L 239.900 145.100 297.350 145.050 L 354.800 144.999 354.800 85.000 L 354.800 25.000 200.000 25.000 L 45.200 25.000 45.200 85.000 L 45.200 144.999 102.650 145.050 L 160.100 145.100 160.156 147.550 L 160.212 150.000 100.006 150.000 L 39.800 150.000 39.800 85.133 C 39.800 49.457,39.860 20.207,39.933 20.133 C 40.007 20.060,112.074 20.022,200.083 20.050 L 360.100 20.100 360.150 85.050 M118.800 66.500 L 118.800 68.600 116.000 68.600 L 113.200 68.600 113.200 66.633 C 113.200 64.211,112.952 64.400,116.133 64.400 L 118.800 64.400 118.800 66.500 M284.756 69.650 L 284.811 72.400 288.506 72.400 L 292.200 72.400 292.200 74.300 L 292.200 76.200 288.500 76.200 L 284.800 76.200 284.800 82.170 C 284.800 88.712,284.871 89.220,285.861 89.731 C 286.556 90.091,289.854 90.141,291.800 89.822 C 293.229 89.588,293.201 89.554,293.197 91.462 C 293.193 93.602,293.261 93.539,290.624 93.815 C 284.946 94.410,281.592 93.723,280.184 91.677 C 279.179 90.216,279.138 89.906,279.015 82.900 L 278.900 76.300 277.350 76.242 L 275.800 76.183 275.800 74.292 L 275.800 72.400 277.550 72.396 L 279.300 72.393 279.779 70.846 C 280.042 69.996,280.438 68.734,280.659 68.043 L 281.061 66.786 282.880 66.843 L 284.700 66.900 284.756 69.650 M93.529 67.196 C 98.296 67.626,100.664 69.811,100.689 73.800 C 100.705 76.369,99.530 78.260,97.321 79.219 L 96.300 79.662 96.900 79.922 C 97.230 80.065,97.622 80.186,97.772 80.191 C 100.901 80.295,103.253 85.307,101.900 88.987 C 100.442 92.951,97.937 93.828,88.285 93.753 L 81.500 93.700 81.449 80.513 C 81.408 70.095,81.450 67.292,81.649 67.166 C 81.993 66.947,91.025 66.971,93.529 67.196 M87.600 74.600 L 87.600 77.600 90.226 77.600 C 93.681 77.600,94.800 76.886,94.800 74.683 C 94.800 72.411,93.536 71.600,89.996 71.600 L 87.600 71.600 87.600 74.600 M142.714 72.311 C 147.672 73.460,149.711 76.614,149.688 83.100 C 149.659 91.354,145.117 95.230,136.938 93.980 C 131.077 93.085,127.782 86.539,129.508 79.219 C 130.809 73.698,136.304 70.824,142.714 72.311 M196.300 72.165 L 197.100 72.307 197.100 74.703 C 197.100 76.986,197.081 77.097,196.700 77.042 C 188.532 75.866,186.450 78.160,186.255 88.550 L 186.157 93.800 183.378 93.800 L 180.600 93.800 180.600 86.392 C 180.600 79.009,180.434 76.113,179.888 73.971 C 179.730 73.350,179.600 72.743,179.600 72.621 C 179.600 72.470,180.478 72.400,182.362 72.400 L 185.125 72.400 185.485 74.050 C 185.683 74.958,185.890 75.901,185.944 76.147 C 186.027 76.527,186.120 76.437,186.563 75.549 C 188.036 72.593,191.644 71.339,196.300 72.165 M215.514 72.372 C 218.479 73.274,220.513 75.382,221.567 78.644 C 222.015 80.029,222.511 83.659,222.299 84.001 C 222.222 84.127,219.569 84.200,215.082 84.200 C 206.972 84.200,207.575 84.032,208.102 86.143 C 209.186 90.475,214.161 92.004,216.200 88.631 C 216.675 87.845,216.740 87.808,217.500 87.895 C 217.940 87.946,219.087 88.043,220.049 88.111 C 222.126 88.259,222.149 88.283,221.456 89.522 C 218.512 94.790,209.269 95.911,204.909 91.530 C 201.058 87.661,200.770 79.726,204.318 75.285 C 206.498 72.557,211.684 71.207,215.514 72.372 M235.983 72.391 C 236.783 72.799,237.541 73.854,237.736 74.830 C 237.882 75.562,238.036 75.549,238.379 74.776 C 239.706 71.777,243.976 70.959,245.745 73.366 C 246.869 74.894,247.000 76.141,247.000 85.346 L 247.000 93.800 244.716 93.800 L 242.431 93.800 242.361 85.550 C 242.285 76.484,242.220 75.999,241.048 75.705 C 239.158 75.230,238.758 76.989,238.649 86.250 L 238.560 93.800 236.297 93.800 L 234.034 93.800 233.957 85.550 C 233.875 76.812,233.841 76.498,232.909 75.887 C 230.987 74.628,230.202 78.011,230.201 87.550 L 230.200 93.800 227.900 93.800 L 225.600 93.800 225.598 83.850 C 225.597 78.377,225.540 73.563,225.472 73.150 L 225.348 72.400 227.574 72.400 L 229.800 72.400 229.803 73.250 C 229.808 74.987,229.975 75.123,230.674 73.964 C 231.780 72.130,234.114 71.438,235.983 72.391 M264.204 72.413 C 268.743 73.665,270.815 76.961,270.815 82.930 C 270.815 90.329,267.269 94.190,260.468 94.198 C 253.768 94.207,250.293 90.378,250.305 83.000 C 250.319 74.565,256.085 70.173,264.204 72.413 M312.352 72.384 C 316.601 73.676,319.190 77.861,319.199 83.450 L 319.200 84.200 311.972 84.200 L 304.743 84.200 304.869 85.408 C 305.364 90.142,310.796 92.250,313.099 88.602 C 313.592 87.821,313.670 87.776,314.362 87.876 C 314.768 87.935,315.933 88.042,316.950 88.113 C 319.101 88.264,319.104 88.268,318.032 89.926 C 314.441 95.483,304.613 95.748,300.792 90.390 C 297.780 86.167,298.188 78.341,301.604 74.815 C 303.960 72.383,308.772 71.295,312.352 72.384 M118.800 81.095 L 118.800 89.791 122.250 89.845 L 125.700 89.900 125.757 91.850 L 125.814 93.800 115.600 93.800 L 105.386 93.800 105.443 91.850 L 105.500 89.900 109.353 89.846 L 113.205 89.791 113.153 83.046 L 113.100 76.300 110.300 76.200 L 107.500 76.100 107.442 74.250 L 107.385 72.400 113.092 72.400 L 118.800 72.400 118.800 81.095 M211.111 75.734 C 209.657 76.147,208.625 77.364,208.139 79.239 C 207.758 80.708,207.422 80.600,212.359 80.600 L 216.651 80.600 216.557 79.621 C 216.303 76.978,213.577 75.032,211.111 75.734 M307.748 75.886 C 306.178 76.446,305.228 77.736,304.902 79.750 L 304.765 80.600 309.182 80.600 C 314.186 80.600,313.828 80.755,313.275 78.831 C 312.569 76.370,310.091 75.050,307.748 75.886 M137.618 76.330 C 135.691 77.170,134.770 80.474,135.201 85.004 C 135.610 89.309,137.925 91.187,141.203 89.875 C 144.732 88.463,144.791 77.746,141.278 76.278 C 140.423 75.921,138.494 75.948,137.618 76.330 M258.663 76.389 C 256.883 77.197,256.306 78.872,256.317 83.200 C 256.330 88.292,257.463 90.200,260.474 90.200 C 263.865 90.200,265.302 87.186,264.785 81.158 C 264.407 76.750,261.999 74.874,258.663 76.389 M169.400 83.303 L 169.400 85.806 163.650 85.753 L 157.900 85.700 157.844 83.250 L 157.788 80.800 163.594 80.800 L 169.400 80.800 169.400 83.303 M87.600 85.826 L 87.600 89.453 90.750 89.360 C 94.880 89.238,95.661 88.845,96.195 86.622 C 96.942 83.506,95.205 82.200,90.311 82.200 L 87.600 82.200 87.600 85.826 M191.400 124.078 C 193.779 124.860,195.408 125.810,197.199 127.461 C 198.406 128.572,198.418 128.706,197.407 129.693 L 196.614 130.468 195.657 129.576 C 185.348 119.965,170.179 131.437,176.451 144.100 C 176.937 145.082,178.108 146.374,182.886 151.200 C 186.099 154.445,191.262 159.665,194.360 162.800 L 199.992 168.500 202.746 165.772 L 205.500 163.044 206.769 162.910 C 207.466 162.836,208.239 162.699,208.485 162.606 C 209.816 162.100,209.126 162.985,204.936 167.160 C 201.594 170.490,200.357 171.602,199.990 171.606 C 199.429 171.614,176.200 148.448,175.032 146.716 C 171.068 140.843,171.611 133.089,176.335 128.091 C 180.171 124.033,186.298 122.401,191.400 124.078 M217.200 124.074 C 226.324 127.040,230.338 137.058,225.777 145.479 C 224.218 148.357,214.894 157.519,211.916 159.099 C 198.291 166.327,184.066 149.674,193.245 137.240 C 194.425 135.641,203.182 126.984,204.525 126.089 C 208.426 123.487,213.106 122.743,217.200 124.074 M210.363 126.304 C 208.799 126.615,207.587 127.120,206.257 128.015 C 205.088 128.802,196.453 137.309,195.407 138.705 C 192.167 143.028,192.105 148.814,195.251 153.202 L 195.602 153.692 197.888 151.412 L 200.173 149.133 200.061 148.185 C 199.750 145.559,203.388 141.409,206.000 141.409 C 207.571 141.409,209.057 142.584,209.590 144.248 C 210.396 146.764,206.008 151.420,203.111 151.123 L 201.895 150.999 199.709 153.191 C 197.164 155.744,197.164 155.641,199.693 156.890 C 203.182 158.614,206.996 158.607,210.574 156.870 C 212.575 155.899,222.484 146.172,223.577 144.106 C 228.500 134.805,220.667 124.252,210.363 126.304 M204.263 145.250 C 202.218 147.212,201.968 148.600,203.660 148.600 C 205.090 148.600,207.665 144.770,206.613 144.207 C 205.918 143.835,205.583 143.983,204.263 145.250 " stroke="none" fill="#5c5c64" fill-rule="evenodd"></path><path id="path4" d="M39.899 85.100 C 39.899 120.850,39.922 135.505,39.950 117.666 C 39.978 99.828,39.978 70.578,39.950 52.666 C 39.922 34.755,39.899 49.350,39.899 85.100 M360.099 85.100 C 360.099 120.850,360.122 135.505,360.150 117.666 C 360.178 99.828,360.178 70.578,360.150 52.666 C 360.122 34.755,360.099 49.350,360.099 85.100 M354.899 84.900 C 354.899 117.900,354.922 131.370,354.950 114.834 C 354.978 98.297,354.978 71.297,354.950 54.834 C 354.922 38.370,354.899 51.900,354.899 84.900 M45.099 85.000 C 45.099 117.945,45.122 131.423,45.150 114.950 C 45.178 98.478,45.178 71.523,45.150 55.050 C 45.122 38.578,45.099 52.055,45.099 85.000 M84.350 67.149 C 85.808 67.184,88.192 67.184,89.650 67.149 C 91.108 67.115,89.915 67.087,87.000 67.087 C 84.085 67.087,82.892 67.115,84.350 67.149 M284.679 69.700 C 284.679 71.240,284.711 71.844,284.749 71.041 C 284.787 70.239,284.786 68.979,284.748 68.241 C 284.710 67.504,284.679 68.160,284.679 69.700 M81.494 80.400 C 81.494 87.715,81.519 90.708,81.550 87.050 C 81.580 83.392,81.580 77.408,81.550 73.750 C 81.519 70.093,81.494 73.085,81.494 80.400 M87.479 74.600 C 87.479 76.195,87.511 76.848,87.549 76.050 C 87.586 75.252,87.586 73.948,87.549 73.150 C 87.511 72.353,87.479 73.005,87.479 74.600 M139.050 75.938 C 139.243 75.988,139.558 75.988,139.750 75.938 C 139.942 75.888,139.785 75.846,139.400 75.846 C 139.015 75.846,138.858 75.888,139.050 75.938 M260.250 75.938 C 260.443 75.988,260.757 75.988,260.950 75.938 C 261.143 75.888,260.985 75.846,260.600 75.846 C 260.215 75.846,260.058 75.888,260.250 75.938 M284.688 82.200 C 284.688 85.445,284.716 86.773,284.750 85.150 C 284.783 83.527,284.783 80.873,284.750 79.250 C 284.716 77.627,284.688 78.955,284.688 82.200 M88.650 77.748 C 89.283 77.787,90.317 77.787,90.950 77.748 C 91.583 77.708,91.065 77.676,89.800 77.676 C 88.535 77.676,88.017 77.708,88.650 77.748 M264.850 81.900 C 264.853 82.340,264.894 82.496,264.941 82.248 C 264.989 81.999,264.987 81.639,264.937 81.448 C 264.887 81.256,264.848 81.460,264.850 81.900 M201.862 83.100 C 201.863 83.760,201.900 84.006,201.945 83.646 C 201.989 83.287,201.989 82.747,201.943 82.446 C 201.897 82.146,201.861 82.440,201.862 83.100 M87.482 85.800 C 87.482 87.725,87.512 88.513,87.549 87.550 C 87.586 86.588,87.586 85.013,87.549 84.050 C 87.512 83.088,87.482 83.875,87.482 85.800 M222.246 83.400 C 222.246 83.785,222.288 83.942,222.338 83.750 C 222.388 83.558,222.388 83.243,222.338 83.050 C 222.288 82.858,222.246 83.015,222.246 83.400 M292.741 89.741 C 292.886 89.844,293.011 90.590,293.055 91.606 L 293.127 93.300 293.114 91.516 C 293.103 90.108,293.037 89.715,292.800 89.651 C 292.587 89.593,292.570 89.619,292.741 89.741 M107.460 89.949 C 108.539 89.985,110.249 89.985,111.260 89.949 C 112.272 89.913,111.390 89.883,109.300 89.883 C 107.210 89.884,106.382 89.913,107.460 89.949 M120.450 89.949 C 121.413 89.986,122.988 89.986,123.950 89.949 C 124.913 89.912,124.125 89.882,122.200 89.882 C 120.275 89.882,119.488 89.912,120.450 89.949 M288.750 90.141 C 288.998 90.189,289.403 90.189,289.650 90.141 C 289.897 90.093,289.695 90.054,289.200 90.054 C 288.705 90.054,288.502 90.093,288.750 90.141 M174.850 138.100 C 174.853 138.540,174.894 138.696,174.941 138.448 C 174.989 138.199,174.987 137.839,174.937 137.648 C 174.887 137.456,174.848 137.660,174.850 138.100 M160.077 147.600 C 160.077 148.975,160.109 149.537,160.148 148.850 C 160.187 148.162,160.187 147.037,160.148 146.350 C 160.109 145.662,160.077 146.225,160.077 147.600 M239.877 147.600 C 239.877 148.975,239.909 149.537,239.948 148.850 C 239.987 148.162,239.987 147.037,239.948 146.350 C 239.909 145.662,239.877 146.225,239.877 147.600 M221.895 150.050 L 220.300 151.700 221.950 150.105 C 223.482 148.623,223.691 148.400,223.545 148.400 C 223.515 148.400,222.773 149.143,221.895 150.050 M181.000 149.452 C 181.000 149.480,182.778 151.258,184.950 153.402 L 188.900 157.300 185.002 153.350 C 181.380 149.680,181.000 149.310,181.000 149.452 M219.092 152.850 L 218.100 153.900 219.150 152.908 C 219.728 152.362,220.200 151.889,220.200 151.858 C 220.200 151.708,220.015 151.874,219.092 152.850 M183.700 155.800 C 184.575 156.680,185.336 157.400,185.391 157.400 C 185.446 157.400,184.775 156.680,183.900 155.800 C 183.025 154.920,182.264 154.200,182.209 154.200 C 182.154 154.200,182.825 154.920,183.700 155.800 M216.492 155.450 L 215.500 156.500 216.550 155.508 C 217.128 154.962,217.600 154.489,217.600 154.458 C 217.600 154.308,217.415 154.474,216.492 155.450 M187.500 159.600 C 188.153 160.260,188.732 160.800,188.787 160.800 C 188.842 160.800,188.353 160.260,187.700 159.600 C 187.047 158.940,186.468 158.400,186.413 158.400 C 186.358 158.400,186.847 158.940,187.500 159.600 " stroke="none" fill="#6c7474" fill-rule="evenodd"></path></g></svg>