<svg xmlns="http://www.w3.org/2000/svg" xmlns:xlink="http://www.w3.org/1999/xlink" width="918pt" height="320pt" viewBox="0 0 918 320" version="1.1">
<g id="surface1">
<path style=" stroke:none;fill-rule:nonzero;fill:rgb(100%,100%,100%);fill-opacity:1;" d="M 119.605469 196.011719 C 115.320312 194.1875 111.21875 190.269531 108.9375 185.710938 L 106.660156 181.058594 L 106.660156 100.101562 L 109.304688 97.457031 C 112.949219 93.902344 116.777344 93.902344 120.425781 97.457031 L 123.070312 100.101562 L 123.070312 139.214844 C 123.070312 168.386719 123.34375 178.597656 124.164062 179.417969 C 124.890625 180.148438 129.722656 180.511719 139.933594 180.511719 C 150.144531 180.511719 154.976562 180.148438 155.703125 179.417969 C 156.523438 178.597656 156.796875 168.753906 156.796875 140.671875 C 156.796875 100.558594 157.070312 98.003906 161.175781 95.816406 C 164.363281 94.085938 168.558594 94.632812 171.019531 97.09375 L 173.296875 99.375 L 173.023438 141.585938 L 172.75 183.792969 L 170.199219 187.625 C 168.832031 189.722656 166.003906 192.546875 163.910156 193.914062 L 160.171875 196.46875 L 140.9375 196.648438 C 130.363281 196.742188 120.789062 196.46875 119.605469 196.011719 Z M 119.605469 196.011719 "/>
<path style=" stroke:none;fill-rule:nonzero;fill:rgb(100%,100%,100%);fill-opacity:1;" d="M 201.011719 194.644531 L 198.734375 192.457031 L 198.734375 94.816406 L 218.515625 94.816406 L 233.648438 132.011719 L 248.78125 169.117188 L 248.871094 134.65625 L 248.871094 100.101562 L 251.515625 97.457031 C 255.070312 93.996094 259.539062 93.8125 262.910156 97.183594 L 265.28125 99.648438 L 265.28125 197.015625 L 255.160156 196.742188 L 245.042969 196.46875 L 230.367188 160.089844 L 215.597656 123.804688 L 215.140625 157.8125 C 214.867188 176.59375 214.320312 192.636719 213.867188 193.550781 C 211.953125 197.5625 204.476562 198.199219 201.011719 194.644531 Z M 201.011719 194.644531 "/>
<path style=" stroke:none;fill-rule:nonzero;fill:rgb(100%,100%,100%);fill-opacity:1;" d="M 292.8125 194.828125 C 289.984375 191.816406 290.078125 186.074219 292.902344 183.429688 C 294.816406 181.605469 296.003906 181.425781 305.210938 181.425781 L 315.421875 181.425781 L 315.421875 111.40625 L 304.84375 111.042969 C 295 110.769531 294.179688 110.585938 292.539062 108.582031 C 289.984375 105.480469 290.257812 99.828125 293.085938 97.09375 L 295.273438 94.816406 L 352.066406 94.816406 L 354.710938 97.457031 C 358.265625 101.105469 358.265625 104.933594 354.710938 108.582031 C 352.066406 111.226562 351.886719 111.226562 341.949219 111.226562 L 331.828125 111.226562 L 331.828125 181.425781 L 342.222656 181.425781 C 354.347656 181.425781 356.261719 182.335938 357.082031 188.261719 C 357.445312 191.269531 357.171875 192.363281 355.167969 194.460938 L 352.886719 196.921875 L 294.726562 196.921875 Z M 292.8125 194.828125 "/>
<path style=" stroke:none;fill-rule:nonzero;fill:rgb(100%,100%,100%);fill-opacity:1;" d="M 390.628906 194.734375 C 388.53125 193.457031 385.980469 190.816406 384.703125 188.535156 C 382.515625 184.707031 382.425781 183.976562 382.152344 163.921875 C 381.785156 140.671875 382.789062 134.289062 387.347656 128.546875 C 391.265625 123.625 420.257812 98.644531 424.449219 96.636719 C 433.75 92.078125 445.507812 97.277344 448.609375 107.394531 C 449.246094 109.585938 449.429688 118.519531 449.246094 133.105469 C 448.972656 154.4375 448.882812 155.625 446.785156 159.816406 C 444.871094 163.648438 433.75 175.042969 431.925781 175.042969 C 431.558594 175.042969 431.925781 176.5 432.746094 178.234375 C 434.203125 181.332031 434.476562 181.425781 439.398438 181.425781 C 445.050781 181.425781 448.0625 183.246094 449.0625 187.351562 C 449.792969 190.175781 447.96875 194.828125 445.691406 196.011719 C 444.777344 196.558594 439.21875 196.921875 433.292969 196.921875 L 422.445312 196.921875 L 420.710938 191.910156 C 419.800781 189.171875 418.890625 186.894531 418.617188 186.894531 C 418.433594 186.894531 416.425781 188.535156 414.238281 190.449219 C 408.679688 195.28125 404.941406 196.921875 399.105469 196.921875 C 395.640625 196.921875 393.273438 196.285156 390.628906 194.734375 Z M 407.3125 175.132812 C 412.691406 170.574219 412.691406 170.847656 409.316406 162.097656 C 407.492188 157.539062 407.402344 156.535156 408.40625 154.074219 C 409.589844 151.246094 413.328125 148.605469 416.152344 148.605469 C 419.34375 148.605469 422.808594 151.339844 423.902344 154.710938 C 424.539062 156.625 425.359375 158.542969 425.726562 158.90625 C 426.730469 160.089844 431.925781 153.527344 432.5625 150.246094 C 432.835938 148.605469 433.019531 139.214844 432.835938 129.457031 C 432.652344 115.511719 432.289062 111.679688 431.378906 111.679688 C 429.007812 111.679688 404.121094 132.558594 401.476562 136.753906 L 398.832031 140.855469 L 398.558594 159.816406 C 398.378906 170.210938 398.46875 179.417969 398.742188 180.238281 C 399.378906 181.789062 399.105469 181.972656 407.3125 175.132812 Z M 407.3125 175.132812 "/>
<path style=" stroke:none;fill-rule:nonzero;fill:rgb(100%,100%,100%);fill-opacity:1;" d="M 486.988281 196.011719 C 482.792969 194.277344 478.601562 190.269531 476.320312 185.710938 C 474.042969 181.152344 474.042969 180.878906 474.042969 159.179688 C 474.132812 140.671875 474.316406 136.480469 475.683594 132.558594 C 477.6875 126.722656 497.5625 101.015625 502.667969 97.640625 C 506.128906 95.363281 506.859375 95.269531 521.171875 94.996094 L 536.03125 94.722656 L 538.859375 97.550781 C 541.320312 100.011719 541.683594 100.832031 541.226562 103.65625 C 540.132812 110.039062 538.585938 110.679688 524 111.226562 L 511.054688 111.679688 L 502.121094 123.078125 C 497.105469 129.367188 492.546875 135.566406 491.816406 136.933594 C 490.722656 138.847656 490.449219 143.589844 490.449219 158.996094 C 490.449219 183.246094 489.082031 181.425781 507.316406 181.425781 C 523.816406 181.425781 524.179688 181.242188 524.179688 171.761719 L 524.179688 165.015625 L 517.527344 165.015625 C 510.234375 165.015625 507.40625 163.738281 505.855469 159.816406 C 504.582031 156.445312 506.402344 151.613281 509.59375 149.972656 C 511.601562 148.96875 515.703125 148.605469 526.460938 148.605469 L 540.589844 148.605469 L 540.589844 165.015625 C 540.589844 182.972656 539.953125 185.890625 535.300781 190.90625 C 530.199219 196.285156 527.460938 196.921875 507.316406 196.832031 C 497.289062 196.832031 488.171875 196.46875 486.988281 196.011719 Z M 486.988281 196.011719 "/>
<path style=" stroke:none;fill-rule:nonzero;fill:rgb(100%,100%,100%);fill-opacity:1;" d="M 569.671875 195.738281 C 566.207031 193.09375 566.113281 191.910156 566.113281 142.769531 L 566.113281 94.816406 L 591.457031 94.816406 C 613.976562 94.816406 617.074219 94.996094 620.355469 96.546875 C 624.824219 98.550781 629.109375 102.746094 631.203125 106.941406 C 633.394531 111.589844 633.210938 126.816406 630.929688 131.738281 C 627.558594 139.03125 620.8125 143.132812 612.152344 143.132812 C 609.417969 143.132812 607.136719 143.316406 607.136719 143.589844 C 607.136719 143.863281 612.882812 153.527344 619.902344 165.015625 C 630.476562 182.519531 632.664062 186.621094 632.664062 189.628906 C 632.664062 194.097656 629.472656 196.921875 624.457031 196.921875 C 621.722656 196.921875 620.902344 196.46875 619.992188 194.460938 C 619.355469 193.003906 611.96875 180.96875 603.675781 167.566406 C 588.816406 143.589844 588.449219 143.132812 585.53125 143.132812 L 582.523438 143.132812 L 582.523438 192.457031 L 580.246094 194.644531 C 577.785156 197.195312 572.222656 197.742188 569.671875 195.738281 Z M 615.890625 124.445312 C 616.984375 122.804688 617.257812 120.890625 616.984375 118.0625 C 616.164062 111.226562 616.253906 111.226562 598.386719 111.226562 L 582.523438 111.226562 L 582.523438 126.722656 L 614.429688 126.722656 Z M 615.890625 124.445312 "/>
<path style=" stroke:none;fill-rule:nonzero;fill:rgb(100%,100%,100%);fill-opacity:1;" d="M 660.46875 194.644531 C 658.917969 193.183594 658.1875 191.453125 658.1875 189.171875 C 658.1875 186.894531 658.917969 185.164062 660.46875 183.703125 C 662.5625 181.515625 663.203125 181.425781 673.230469 181.425781 L 683.714844 181.425781 L 683.714844 111.226562 L 674.050781 111.226562 C 661.378906 111.226562 658.28125 109.585938 658.1875 102.746094 C 658.1875 100.285156 658.828125 98.644531 660.46875 97.09375 L 662.65625 94.816406 L 719.449219 94.816406 L 722.09375 97.457031 C 725.648438 101.105469 725.648438 104.933594 722.09375 108.582031 C 719.449219 111.132812 719.175781 111.226562 709.785156 111.226562 L 700.125 111.226562 L 700.125 181.425781 L 710.152344 181.425781 C 719.632812 181.425781 720.359375 181.515625 722.457031 183.703125 C 724.007812 185.164062 724.738281 186.894531 724.738281 189.171875 C 724.738281 191.453125 724.007812 193.183594 722.457031 194.644531 L 720.269531 196.921875 L 662.65625 196.921875 Z M 660.46875 194.644531 "/>
<path style=" stroke:none;fill-rule:nonzero;fill:rgb(100%,100%,100%);fill-opacity:1;" d="M 751.722656 194.1875 C 748.710938 190.542969 748.710938 187.625 751.902344 184.160156 C 753.636719 182.0625 755.457031 181.152344 758.285156 180.785156 L 762.113281 180.238281 L 762.113281 111.226562 L 758.832031 111.226562 C 754.457031 111.226562 752.175781 109.859375 750.625 106.121094 C 749.53125 103.476562 749.53125 102.5625 750.625 99.921875 C 752.722656 94.996094 754.089844 94.632812 771.957031 94.996094 C 795.023438 95.363281 795.84375 96 808.148438 121.890625 C 816.261719 138.847656 816.355469 139.121094 816.355469 146.050781 L 816.355469 153.070312 L 806.78125 172.035156 C 798.214844 188.992188 796.753906 191.269531 793.289062 193.730469 L 789.28125 196.46875 L 771.777344 196.742188 L 754.183594 197.015625 Z M 784.8125 179.328125 C 785.542969 178.691406 789.1875 171.851562 792.925781 164.101562 C 802.132812 145.140625 802.132812 145.230469 792.652344 127.179688 C 788.734375 119.703125 784.902344 112.957031 784.175781 112.410156 C 783.355469 111.773438 781.804688 111.226562 780.617188 111.226562 L 778.523438 111.226562 L 778.523438 181.605469 L 780.984375 180.96875 C 782.441406 180.605469 784.082031 179.875 784.8125 179.328125 Z M 784.8125 179.328125 "/>
</g>
</svg>
